<svg width="141" height="140" viewBox="0 0 141 140" fill="none" xmlns="http://www.w3.org/2000/svg">
<path d="M65.7627 2.85645C68.4676 0.464244 72.5324 0.464244 75.2373 2.85645C77.6999 5.03439 81.2296 5.51968 84.1885 4.08691C87.4385 2.51321 91.3523 3.61025 93.3115 6.64355C95.0952 9.40486 98.3631 10.8243 101.599 10.2432C105.153 9.60463 108.625 11.7166 109.693 15.166C110.666 18.3063 113.431 20.555 116.703 20.8682C120.298 21.2124 123.071 24.1824 123.169 27.792C123.258 31.0783 125.313 33.9893 128.38 35.1738C131.748 36.4749 133.618 40.0837 132.738 43.5859C131.938 46.7744 133.131 50.1317 135.765 52.0996C138.657 54.2613 139.484 58.2409 137.692 61.376C136.061 64.2302 136.304 67.7852 138.309 70.3906C140.51 73.2525 140.233 77.3065 137.662 79.8418C135.321 82.15 134.597 85.6387 135.824 88.6885C137.173 92.0384 135.811 95.8686 132.651 97.6162C129.774 99.2073 128.135 102.371 128.494 105.639C128.889 109.228 126.545 112.549 123.03 113.379C119.831 114.135 117.399 116.739 116.863 119.982C116.275 123.545 113.122 126.109 109.515 125.961C106.23 125.826 103.185 127.678 101.794 130.656C100.266 133.928 96.5384 135.547 93.1045 134.431C89.978 133.414 86.5465 134.375 84.4033 136.868C82.0493 139.606 78.023 140.16 75.0176 138.158C72.2814 136.336 68.7186 136.336 65.9824 138.158C62.977 140.16 58.9507 139.606 56.5967 136.868C54.4535 134.375 51.022 133.414 47.8955 134.431C44.4616 135.547 40.734 133.928 39.2061 130.656C37.815 127.677 34.7701 125.826 31.4854 125.961C27.8777 126.109 24.7254 123.545 24.1367 119.982C23.6009 116.739 21.169 114.135 17.9697 113.379C14.4555 112.549 12.1115 109.228 12.5059 105.639C12.865 102.371 11.2255 99.2073 8.34863 97.6162C5.18867 95.8686 3.82749 92.0384 5.17578 88.6885C6.40321 85.6387 5.67877 82.15 3.33789 79.8418C0.766798 77.3065 0.489551 73.2525 2.69141 70.3906C4.69616 67.7852 4.93883 64.2302 3.30762 61.376C1.51575 58.2409 2.34283 54.2613 5.23535 52.0996C7.86868 50.1317 9.06234 46.7744 8.26172 43.5859C7.38213 40.0837 9.25162 36.4749 12.6201 35.1738C15.6868 33.9893 17.7419 31.0783 17.8311 27.792C17.929 24.1824 20.7024 21.2124 24.2969 20.8682C27.5694 20.555 30.3341 18.3063 31.3066 15.166C32.3748 11.7166 35.8472 9.60463 39.4014 10.2432C42.6369 10.8243 45.9048 9.40486 47.6885 6.64355C49.6477 3.61025 53.5615 2.51321 56.8115 4.08691C59.7704 5.51968 63.3001 5.03439 65.7627 2.85645Z" fill="white" stroke="#F3AD80"/>
</svg>
