<svg width="47" height="48" viewBox="0 0 47 48" fill="none" xmlns="http://www.w3.org/2000/svg">
<path d="M22.6475 2.13574C22.8804 1.26313 24.1196 1.26313 24.3525 2.13574C24.792 3.78353 27.0205 4.04403 27.8281 2.54199C28.2561 1.74658 29.4611 2.03253 29.4863 2.93555C29.534 4.64013 31.6432 5.40784 32.7754 4.13281C33.3752 3.45718 34.4826 4.01287 34.2988 4.89746C33.952 6.56719 35.8269 7.80013 37.2227 6.82031C37.962 6.30161 38.9109 7.09779 38.5283 7.91602C37.8058 9.46072 39.3456 11.0933 40.9297 10.4619C41.7689 10.1273 42.5085 11.1211 41.9473 11.8291C40.8884 13.1655 42.0103 15.1085 43.6973 14.8594C44.591 14.7274 45.0814 15.8653 44.3721 16.4248C43.0335 17.481 43.6772 19.6306 45.376 19.7773C46.2761 19.855 46.4912 21.0752 45.6719 21.4561C44.1257 22.1751 44.2566 24.4148 45.876 24.9492C46.7337 25.2325 46.6613 26.4697 45.7764 26.6514C44.106 26.9944 43.7165 29.2041 45.1689 30.0977C45.9383 30.5711 45.5827 31.7578 44.6797 31.7305C42.9753 31.6791 42.0867 33.7399 43.2939 34.9443C43.9331 35.5825 43.3137 36.6548 42.4414 36.4199C40.7948 35.9768 39.4546 37.7772 40.3516 39.2275C40.8265 39.9959 39.9763 40.8965 39.1816 40.4668C37.6816 39.6561 35.9627 41.0988 36.501 42.7168C36.7859 43.5739 35.7513 44.2545 35.0771 43.6533C33.8045 42.5181 31.7996 43.5249 31.9502 45.2236C32.03 46.1236 30.865 46.5473 30.3477 45.8066C29.3712 44.4089 27.1878 44.926 26.9424 46.6133C26.8125 47.5074 25.5826 47.6516 25.25 46.8115C24.6222 45.2259 22.3778 45.2259 21.75 46.8115C21.4174 47.6516 20.1875 47.5074 20.0576 46.6133C19.8122 44.926 17.6288 44.4089 16.6523 45.8066C16.135 46.5473 14.97 46.1236 15.0498 45.2236C15.2004 43.5249 13.1955 42.5181 11.9229 43.6533C11.2487 44.2545 10.2141 43.5739 10.499 42.7168C11.0373 41.0988 9.31838 39.6561 7.81836 40.4668C7.0237 40.8965 6.1735 39.9959 6.64844 39.2275C7.54541 37.7772 6.20525 35.9768 4.55859 36.4199C3.68631 36.6548 3.06692 35.5825 3.70605 34.9443C4.91331 33.7399 4.02474 31.6791 2.32031 31.7305C1.4173 31.7578 1.0617 30.5711 1.83105 30.0977C3.28354 29.2041 2.89404 26.9944 1.22363 26.6514C0.338687 26.4697 0.266316 25.2325 1.12402 24.9492C2.74337 24.4148 2.87427 22.1751 1.32812 21.4561C0.508845 21.0752 0.723896 19.855 1.62402 19.7773C3.32284 19.6306 3.96647 17.481 2.62793 16.4248C1.91857 15.8653 2.40895 14.7274 3.30273 14.8594C4.98966 15.1085 6.11164 13.1655 5.05273 11.8291C4.49153 11.1211 5.23107 10.1273 6.07031 10.4619C7.65442 11.0933 9.19422 9.46072 8.47168 7.91602C8.0891 7.09779 9.03795 6.30161 9.77734 6.82031C11.1731 7.80013 13.048 6.56719 12.7012 4.89746C12.5174 4.01287 13.6248 3.45718 14.2246 4.13281C15.3568 5.40784 17.466 4.64013 17.5137 2.93555C17.5389 2.03253 18.7439 1.74659 19.1719 2.54199C19.9795 4.04403 22.208 3.78353 22.6475 2.13574Z" fill="#E00223" stroke="white"/>
</svg>
